<!DOCTYPE svg PUBLIC "-//W3C//DTD SVG 1.1//EN" "http://www.w3.org/Graphics/SVG/1.1/DTD/svg11.dtd">
<!-- Uploaded to: SVG Repo, www.svgrepo.com, Transformed by: SVG Repo Mixer Tools -->
<svg fill="#37863C" width="800px" height="800px" viewBox="0 0 24 24" xmlns="http://www.w3.org/2000/svg">
<g id="SVGRepo_bgCarrier" stroke-width="0"/>
<g id="SVGRepo_tracerCarrier" stroke-linecap="round" stroke-linejoin="round"/>
<g id="SVGRepo_iconCarrier">
<path d="M12,1A11,11,0,1,0,23,12,11.013,11.013,0,0,0,12,1Zm0,20a9,9,0,1,1,9-9A9.01,9.01,0,0,1,12,21ZM16.707,8.707l-8,8a1,1,0,1,1-1.414-1.414l8-8a1,1,0,1,1,1.414,1.414ZM6.5,8.5a2,2,0,1,1,2,2A2,2,0,0,1,6.5,8.5Zm11,7a2,2,0,1,1-2-2A2,2,0,0,1,17.5,15.5Z"/>
</g>
</svg>