<!DOCTYPE svg PUBLIC "-//W3C//DTD SVG 1.1//EN" "http://www.w3.org/Graphics/SVG/1.1/DTD/svg11.dtd">
<!-- Uploaded to: SVG Repo, www.svgrepo.com, Transformed by: SVG Repo Mixer Tools -->
<svg fill="#37863C" width="800px" height="800px" viewBox="0 0 24 24" xmlns="http://www.w3.org/2000/svg">
<g id="SVGRepo_bgCarrier" stroke-width="0"/>
<g id="SVGRepo_tracerCarrier" stroke-linecap="round" stroke-linejoin="round"/>
<g id="SVGRepo_iconCarrier">
<path d="M8,16a1,1,0,0,0-2,0,5.006,5.006,0,0,0,5,5v1a1,1,0,0,0,2,0V21a5,5,0,0,0,0-10V5a3,3,0,0,1,3,3,1,1,0,0,0,2,0,5.006,5.006,0,0,0-5-5V2a1,1,0,0,0-2,0V3a5,5,0,0,0,0,10v6A3,3,0,0,1,8,16Zm5-3a3,3,0,0,1,0,6ZM8,8a3,3,0,0,1,3-3v6A3,3,0,0,1,8,8Z"/>
</g>
</svg>